<?xml version="1.0" encoding="UTF-8"?>
<svg version="1.1" xmlns="http://www.w3.org/2000/svg" width="1024" height="1024">
<path d="M0 0 C337.92 0 675.84 0 1024 0 C1024 337.92 1024 675.84 1024 1024 C686.08 1024 348.16 1024 0 1024 C0 686.08 0 348.16 0 0 Z " fill="#10293D" transform="translate(0,0)"/>
<path d="M0 0 C1.24827306 -0.00467997 2.49654612 -0.00935994 3.78264564 -0.01418173 C7.20357508 -0.02398786 10.62400135 -0.02058097 14.04489887 -0.01122308 C17.75115574 -0.0043797 21.45737154 -0.01493972 25.16362 -0.02316284 C32.40652361 -0.03644607 39.64933354 -0.03364683 46.89224071 -0.02492492 C52.78234445 -0.01812788 58.67242207 -0.01724035 64.56252861 -0.02049637 C65.40336353 -0.02095607 66.24419845 -0.02141577 67.11051322 -0.0218894 C68.81906225 -0.02284865 70.52761126 -0.02382129 72.23616027 -0.02480717 C88.22638164 -0.03334507 104.21655127 -0.02355183 120.20676415 -0.00740607 C133.90560445 0.00599811 147.60436847 0.00366509 161.3032074 -0.01016235 C177.2408573 -0.02624227 193.17846196 -0.03252382 209.11611885 -0.02332556 C210.81779889 -0.02236999 212.51947893 -0.02142688 214.22115898 -0.02049637 C215.05825353 -0.02003354 215.89534807 -0.01957072 216.75780912 -0.01909386 C222.63641799 -0.01651139 228.51499798 -0.02085885 234.39360237 -0.02793503 C241.56390115 -0.03637697 248.73410149 -0.03401343 255.90438909 -0.0180928 C259.55770766 -0.01024653 263.21086251 -0.00705568 266.86417961 -0.01704025 C270.83516273 -0.02772834 274.80588187 -0.01490643 278.77685547 0 C279.91617808 -0.00669217 281.0555007 -0.01338433 282.22934824 -0.02027929 C297.88286262 0.09314377 311.0607214 4.06643008 322.50071716 14.93173218 C331.74654076 24.67481016 336.94494368 36.17575795 336.95357037 49.67139053 C336.95679481 50.94723487 336.96001926 52.22307921 336.96334141 53.5375855 C336.96187031 54.95121473 336.9603026 56.36484387 336.95864868 57.7784729 C336.96051693 59.28192666 336.96281769 60.78537993 336.965514 62.28883243 C336.97163679 66.42174014 336.97149784 70.55462764 336.97031963 74.68753886 C336.97011574 79.14438232 336.97563327 83.60121926 336.9803772 88.05805969 C336.98868712 96.79075539 336.9914322 105.52344434 336.99198958 114.25614366 C336.99246461 121.35453773 336.99451873 128.45292957 336.9976902 135.55132294 C337.006498 155.67439023 337.01110942 175.79745218 337.01035973 195.92052141 C337.01029979 197.5481142 337.01029979 197.5481142 337.01023865 199.20858765 C337.01019777 200.29497374 337.01015689 201.38135983 337.01011477 202.50066671 C337.00970834 220.10586274 337.01927659 237.71103738 337.03337701 255.31622723 C337.04773933 273.39097885 337.05464727 291.46572004 337.05378324 309.54047751 C337.0534512 319.68889249 337.05620122 329.83728505 337.06696129 339.98569489 C337.07606442 348.62679932 337.0782431 357.26787116 337.07145187 365.90897831 C337.06818562 370.31713087 337.06813376 374.72522091 337.07680511 379.13336754 C337.08466644 383.17130007 337.08324242 387.20912047 337.07452098 391.24705026 C337.07298518 392.70532903 337.07480519 394.16361616 337.08038106 395.62188509 C337.15278689 415.90707829 337.15278689 415.90707829 331.23509216 421.87313843 C330.53319763 422.59759155 329.8313031 423.32204468 329.10813904 424.06845093 C328.37530701 424.79032593 327.64247498 425.51220093 326.88743591 426.25595093 C326.15847107 427.00102905 325.42950623 427.74610718 324.67845154 428.51376343 C322.74314921 430.48631722 320.78954365 432.4376595 318.82493591 434.38095093 C317.82444263 435.3804574 316.8242619 436.38027737 315.82493591 437.38095093 C312.81105518 436.03036979 310.72146822 434.52490318 308.39915466 432.18563843 C307.77113953 431.55625366 307.14312439 430.9268689 306.49607849 430.27841187 C305.84147644 429.61099976 305.18687439 428.94358765 304.51243591 428.25595093 C303.83527527 427.57307007 303.15811462 426.89018921 302.46043396 426.18661499 C299.24217221 422.92124913 296.08987436 419.64156181 293.13743591 416.13095093 C290.17860419 412.62217927 286.8889894 409.54222761 283.51243591 406.44345093 C282.98367859 405.95779663 282.45492126 405.47214233 281.91014099 404.97177124 C277.81308964 401.26198359 275.58159957 399.93026754 269.90306091 400.05282593 C262.00636498 401.29967265 256.30005494 412.17193033 251.80931091 417.99423218 C250.04247913 420.11929954 248.32089824 421.81301615 246.19993591 423.56845093 C241.12925443 427.89288117 236.49121375 432.62861469 231.82493591 437.38095093 C228.38563009 435.89968735 226.15539253 433.95667647 223.52415466 431.31063843 C222.71140076 430.49595093 221.89864685 429.68126343 221.06126404 428.84188843 C220.22015076 427.98852905 219.37903748 427.13516968 218.51243591 426.25595093 C217.68292419 425.42579468 216.85341248 424.59563843 215.99876404 423.74032593 C209.72785983 417.42487701 203.79119838 411.00263422 198.44993591 403.88095093 C195.94993299 401.07402801 194.23113779 399.73201988 190.44993591 399.31845093 C183.4858817 399.96985056 179.57714162 406.13172358 175.36082458 411.10946655 C170.31247227 416.98272276 164.88752134 422.43234219 159.38743591 427.88095093 C158.46511169 428.79876343 157.54278748 429.71657593 156.59251404 430.66220093 C154.33893693 432.90410147 152.08304516 435.14361692 149.82493591 437.38095093 C145.63615759 435.1185907 142.42994045 432.2641657 139.11399841 428.90048218 C138.58277374 428.36879929 138.05154907 427.83711639 137.50422668 427.2893219 C136.38414144 426.16622661 135.26647645 425.04071291 134.15110779 423.91293335 C132.46730029 422.21100221 130.7757626 420.51707798 129.08274841 418.8243103 C123.90266203 413.62597543 118.80914558 408.4218829 114.10765076 402.77816772 C111.82844768 400.29551085 110.47760209 400.34678695 107.01243591 400.00595093 C103.7021026 400.0654893 102.99708088 400.24659388 100.26243591 402.38095093 C99.45806091 403.37095093 98.65368591 404.36095093 97.82493591 405.38095093 C96.82658677 406.55737931 95.8206011 407.72734701 94.80931091 408.89266968 C94.21569763 409.57764526 93.62208435 410.26262085 93.01048279 410.96835327 C88.23675343 416.23801296 83.12094591 421.18650586 78.07493591 426.19345093 C76.9666416 427.2967442 75.85856466 428.40025588 74.75071716 429.5039978 C72.11150181 432.132385 69.46914687 434.75758831 66.82493591 437.38095093 C65.84154047 436.52141343 64.85814503 435.66187593 63.84494972 434.77629185 C61.22172472 432.50721241 58.53630563 430.45167294 55.70731163 428.44788265 C48.57743682 422.96529424 43.75417403 417.65586917 42.36615372 408.53837776 C41.68868932 400.69391767 41.76166369 392.86169374 41.91266108 384.99575889 C41.97409455 380.8655409 41.94190852 376.73585537 41.92156982 372.6053772 C41.89887577 365.46369861 41.93399047 358.3242324 42.00918961 351.18293953 C42.11774242 340.84869693 42.13508886 330.51583046 42.13058095 320.18109136 C42.1255178 303.3975438 42.19013671 286.61503663 42.30052185 269.83187866 C42.40736379 253.56039771 42.48629328 237.28922142 42.52415466 221.01742554 C42.52650205 220.01412624 42.52884944 219.01082694 42.53126796 217.97712464 C42.55411336 207.99641908 42.57285745 198.01570595 42.59165371 188.03499212 C42.6008589 183.19046714 42.61048616 178.34594306 42.62019348 173.50141907 C42.62294549 172.08206722 42.62294549 172.08206722 42.62575309 170.6340416 C42.65173222 157.547543 42.70506132 144.46142244 42.77891424 131.375111 C42.80737247 126.14298918 42.83060558 120.91084149 42.85355772 115.67869294 C42.87546013 110.82880877 42.90601929 105.97908538 42.94344232 101.1292975 C42.96409599 98.18068947 42.97633126 95.23209068 42.98620503 92.28342872 C42.99538516 90.30249955 43.01482381 88.32162602 43.0346781 86.34077507 C43.06449553 71.58006718 39.29255023 59.14742142 28.87571716 48.27938843 C17.84484313 38.06795075 4.173537 36.5129162 -10.26490784 37.00204468 C-21.70815406 37.6924921 -31.47444567 43.17970782 -39.36256409 51.44345093 C-51.15366954 66.42588122 -51.473832 82.87125794 -51.4780426 101.08676147 C-51.48571588 103.05733077 -51.49426453 105.02789682 -51.50361633 106.99845886 C-51.52180092 111.21841977 -51.53389885 115.4383372 -51.54115486 119.65833092 C-51.55268802 126.32599521 -51.57815999 132.99356291 -51.60546875 139.66117859 C-51.64700349 150.19582212 -51.67947893 160.73047033 -51.7079429 171.26515657 C-51.75908229 190.16624582 -51.82096595 209.06729542 -51.89328331 227.96831542 C-51.91824569 234.60315531 -51.93765736 241.23798212 -51.95266545 247.87285173 C-51.96283224 251.98427159 -51.97697626 256.09567096 -51.99214172 260.20707512 C-51.99832238 262.12076589 -52.0027675 264.03446313 -52.0053997 265.94816208 C-52.00918236 268.54837061 -52.01896979 271.14848761 -52.03030396 273.74867249 C-52.02991782 274.51576387 -52.02953169 275.28285525 -52.02913386 276.07319182 C-52.06099796 281.2668848 -52.06099796 281.2668848 -53.17506409 282.38095093 C-55.61166854 282.48177856 -58.0193111 282.52067696 -60.45631409 282.51376343 C-61.18499695 282.51472015 -61.91367981 282.51567688 -62.66444397 282.5166626 C-64.20786119 282.51734428 -65.75128126 282.5154908 -67.29469299 282.51132202 C-69.66503808 282.50597355 -72.03519368 282.51126735 -74.40553284 282.51766968 C-75.90162701 282.51700889 -77.39772106 282.51572773 -78.89381409 282.51376343 C-79.96411865 282.51679977 -79.96411865 282.51679977 -81.05604553 282.51989746 C-86.06011217 282.49590284 -86.06011217 282.49590284 -87.17506409 281.38095093 C-87.27959668 278.64933047 -87.31838529 275.94276681 -87.31550598 273.21044922 C-87.31996266 271.90998911 -87.31996266 271.90998911 -87.32450938 270.58325708 C-87.33323665 267.65464677 -87.33470805 264.72607715 -87.3361969 261.79745483 C-87.34082248 259.70680656 -87.34584679 257.61615913 -87.35124207 255.5255127 C-87.3643991 249.82666829 -87.37081824 244.12783568 -87.37525272 238.42897844 C-87.37818008 234.86846666 -87.38228439 231.30795812 -87.3867569 227.74744797 C-87.4004448 216.60792258 -87.4101033 205.46840459 -87.41395879 194.32887137 C-87.41843321 181.47086972 -87.43594709 168.61297471 -87.46495938 155.75500548 C-87.4865984 145.81943692 -87.49666437 135.8838983 -87.49799991 125.94830644 C-87.49904698 120.01394392 -87.50493323 114.07968148 -87.52281952 108.14534378 C-87.53933692 102.55575981 -87.54143781 96.96635068 -87.53268051 91.37675095 C-87.53191192 89.33019288 -87.53622929 87.28362528 -87.54613876 85.23709106 C-87.63606701 65.49901423 -87.63606701 65.49901423 -84.17506409 56.38095093 C-83.89104359 55.58326609 -83.60702309 54.78558125 -83.3143959 53.96372414 C-82.63241249 52.0911684 -81.90916967 50.23369359 -81.17506409 48.38095093 C-80.51506409 48.38095093 -79.85506409 48.38095093 -79.17506409 48.38095093 C-79.06162659 47.64231812 -78.94818909 46.9036853 -78.83131409 46.14266968 C-75.85240781 33.6064391 -61.33190404 21.03940312 -50.95240784 14.28329468 C-35.14526199 4.71727288 -18.5130504 -0.10895548 0 0 Z " fill="#FCFEFD" transform="translate(362.17506408691406,155.61904907226563)"/>
<path d="M0 0 C13.2 0 26.4 0 40 0 C42.93944882 3.67431102 45.16485308 6.80849836 47.43359375 10.83984375 C48.39736938 12.5420105 48.39736938 12.5420105 49.38061523 14.27856445 C49.88369705 15.17365219 49.88369705 15.17365219 50.39694214 16.08682251 C52.17157307 19.24308094 53.96134907 22.3907347 55.75 25.5390625 C56.10956284 26.17264175 56.46912567 26.80622101 56.83958435 27.45899963 C61.63676692 35.89976839 66.59411247 44.24457296 71.56884766 52.58154297 C72.96499312 54.94084304 74.33567049 57.31314789 75.69921875 59.69140625 C76.11244385 60.40385498 76.52566895 61.11630371 76.95141602 61.8503418 C77.70937139 63.15796067 78.45917833 64.47035248 79.19897461 65.78833008 C80.26309957 67.66969726 80.26309957 67.66969726 82 70 C82.99 70 83.98 70 85 70 C86.98842883 67.57699314 86.98842883 67.57699314 88.9375 64.3125 C89.32373535 63.69528076 89.7099707 63.07806152 90.10791016 62.44213867 C95.12855209 54.32388524 99.78354072 45.98542013 104.48144531 37.67822266 C119.27439024 11.58841463 119.27439024 11.58841463 127 0 C140.2 0 153.4 0 167 0 C167 53.13 167 106.26 167 161 C155.78 161 144.56 161 133 161 C132.97494385 158.48383057 132.9498877 155.96766113 132.92407227 153.37524414 C132.84003841 144.9973831 132.75143078 136.61957472 132.66066074 128.2417841 C132.60584424 123.16975359 132.55249761 118.09771708 132.50268555 113.02563477 C132.45442398 108.11723531 132.40207243 103.20889398 132.34705925 98.30056572 C132.32691137 96.44181228 132.30815868 94.58304309 132.29092598 92.72426033 C132.18221461 81.11958351 131.8015851 69.5783009 131 58 C130.29617188 59.11632812 129.59234375 60.23265625 128.8671875 61.3828125 C123.26278085 70.26672085 117.64322852 79.14069587 112 88 C107.532796 95.01523316 103.0705558 102.03352396 98.625 109.0625 C98.13467285 109.83634033 97.6443457 110.61018066 97.13916016 111.4074707 C94.90588988 114.94114062 92.69581916 118.48463562 90.546875 122.0703125 C90.1761084 122.68640381 89.8053418 123.30249512 89.42333984 123.93725586 C88.45001717 125.56225592 87.4863181 127.19300964 86.5234375 128.82421875 C86.02070313 129.54222656 85.51796875 130.26023437 85 131 C84.34 131 83.68 131 83 131 C81.28202174 128.5954462 79.69076949 126.18945208 78.125 123.6875 C77.6388623 122.92276367 77.15272461 122.15802734 76.65185547 121.37011719 C75.61757012 119.74079528 74.58657884 118.10937846 73.55859375 116.47607422 C72.06669583 114.10595695 70.56609007 111.74161866 69.0625 109.37890625 C57.83841253 91.71243596 46.89008395 73.87370493 36 56 C35.22911362 80.62126812 34.79315726 105.24487166 34.4375 129.875 C34.4263982 130.64364506 34.4152964 131.41229012 34.40385818 132.20422745 C34.26556356 141.8027698 34.13229782 151.40137109 34 161 C22.78 161 11.56 161 0 161 C0 107.87 0 54.74 0 0 Z " fill="#FCFDFC" transform="translate(176,679)"/>
<path d="M0 0 C27.79182889 -2.54343244 27.79182889 -2.54343244 34.79443359 1.68896484 C39.4573002 6.18172036 42.53607837 11.63784991 45.54541016 17.32421875 C47.69006077 21.26939679 50.29289442 24.81759753 52.9375 28.4375 C53.90615794 29.81946515 54.87358265 31.20229543 55.83984375 32.5859375 C61.37108929 40.3911988 67.27511836 47.92455214 73.09863281 55.51220703 C75.88320604 59.15560729 78.63140248 62.82569946 81.375 66.5 C85.6781091 72.25954602 90.03865237 77.96989888 94.453125 83.64453125 C98.04304944 88.37420164 101.5075605 93.19789569 105 98 C105.33 65.66 105.66 33.32 106 0 C117.55 0 129.1 0 141 0 C141 53.13 141 106.26 141 161 C129.78 161 118.56 161 107 161 C99.35099338 150.07284768 99.35099338 150.07284768 95.875 144.5 C90.30672766 135.72128016 84.14874306 127.37694936 78 119 C76.83717416 117.40890198 75.674414 115.81775595 74.51171875 114.2265625 C69.45140214 107.31857144 64.36361047 100.44277671 59.10253906 93.68603516 C41.5662612 71.13252241 41.5662612 71.13252241 36 60 C35.67 93.33 35.34 126.66 35 161 C23.78 161 12.56 161 1 161 C0.86789664 145.61909305 0.73719257 130.23817557 0.60884857 114.85723686 C0.54917456 107.71080656 0.48893333 100.56438198 0.42724609 93.41796875 C0.15875329 62.27862019 -0.09984854 31.14083846 0 0 Z " fill="#FBFDFC" transform="translate(546,679)"/>
<path d="M0 0 C11.22 0 22.44 0 34 0 C34.04898438 2.69285156 34.09796875 5.38570312 34.1484375 8.16015625 C34.5145573 26.84270624 34.91690546 45.41394287 37 64 C37.49886719 63.37996094 37.99773438 62.75992188 38.51171875 62.12109375 C46.64397333 52.09082643 55.06225698 42.30347965 63.75 32.75 C66.71967972 29.47850165 69.54339555 26.13030428 72.3125 22.6875 C76.34172844 17.6972365 80.61754516 12.99104636 85.01489258 8.3269043 C87.23568508 5.96262232 89.19543534 3.70684699 91 1 C92.87295532 0.63923645 92.87295532 0.63923645 95.17431641 0.65942383 C96.46542831 0.65976372 96.46542831 0.65976372 97.78262329 0.66011047 C98.71287323 0.67559433 99.64312317 0.69107819 100.6015625 0.70703125 C101.55316254 0.71127609 102.50476257 0.71552094 103.48519897 0.71989441 C106.53208414 0.73672104 109.57831391 0.77438046 112.625 0.8125 C114.68749046 0.82754169 116.74999127 0.84123099 118.8125 0.85351562 C123.8752535 0.88663761 128.93751554 0.93844716 134 1 C134 4 134 4 132.71484375 5.54296875 C131.83505859 6.35701172 131.83505859 6.35701172 130.9375 7.1875 C128.41641116 9.60291446 126.02736321 12.04068562 123.75 14.6875 C120.7328322 18.18714283 117.63118064 21.60254989 114.5 25 C110.87890073 28.9326638 107.31040648 32.90214504 103.80859375 36.94140625 C101.5698875 39.4895665 99.28589788 41.99410593 97 44.5 C93.57340218 48.25687231 90.1906264 52.04243259 86.8671875 55.890625 C85.39864265 57.54965056 83.89666505 59.17908631 82.3828125 60.796875 C81.92712891 61.28542969 81.47144531 61.77398438 81.00195312 62.27734375 C79.68618455 63.6845629 78.36280157 65.08465091 77.0390625 66.484375 C75.05297493 68.93464396 74.31598344 69.94382528 74 73 C74.93712908 75.00574674 74.93712908 75.00574674 76.5078125 76.9140625 C77.07564453 77.66558594 77.64347656 78.41710937 78.22851562 79.19140625 C78.85435547 79.99449219 79.48019531 80.79757812 80.125 81.625 C81.43063042 83.34563908 82.7352965 85.06701028 84.0390625 86.7890625 C84.70454102 87.66079102 85.37001953 88.53251953 86.05566406 89.43066406 C88.93778627 93.23923439 91.71999621 97.11661486 94.5 101 C99.53440307 107.99844938 104.63419621 114.94637541 109.75854492 121.87915039 C114.36284923 128.11589569 118.90734343 134.39403751 123.43066406 140.68969727 C127.32737382 146.10239886 131.31925199 151.43246016 135.390625 156.71484375 C137 159 137 159 138 162 C101.88378739 164.82705351 101.88378739 164.82705351 92.96044922 160.53955078 C88.59142196 156.72371554 86.39980767 151.85191019 84.19189453 146.57421875 C82.15055998 142.16540443 79.15020994 138.51087193 76.1875 134.6875 C75.02448707 133.11669438 73.86437116 131.54374006 72.70703125 129.96875 C67.97960397 123.60574303 63.16257564 117.31058334 58.32885742 111.02807617 C55.06368668 106.77183299 51.90093317 102.51338079 49 98 C45.07876729 99.30707757 44.26129006 101.12941853 41.9375 104.5 C38.20098522 109.89950739 38.20098522 109.89950739 36 111 C35.67 127.83 35.34 144.66 35 162 C23.45 162 11.9 162 0 162 C0 108.54 0 55.08 0 0 Z " fill="#FBFDFC" transform="translate(719,678)"/>
<path d="M0 0 C6.01369202 -0.24774368 12.02440145 -0.42888752 18.04199219 -0.54931641 C20.08711485 -0.59952135 22.13188002 -0.66770538 24.17578125 -0.75439453 C41.09325611 -1.45380375 41.09325611 -1.45380375 45.49951172 1.90576172 C47.0981138 4.55310503 48.04101635 7.06459287 49 10 C49.91899464 11.69491816 50.87560501 13.36993731 51.8671875 15.0234375 C52.87097139 16.8066281 53.87352314 18.59051271 54.875 20.375 C58.66011713 27.10005199 62.45964138 33.81628032 66.296875 40.51171875 C66.65737946 41.14100281 67.01788391 41.77028687 67.38931274 42.41864014 C68.81748346 44.91099698 70.24594376 47.40317907 71.67767334 49.89349365 C72.67452647 51.62741609 73.66932877 53.36251707 74.6640625 55.09765625 C75.23592285 56.09289307 75.8077832 57.08812988 76.39697266 58.11352539 C78.02012073 61.03623018 79.52702828 63.99920298 81 67 C86.92732993 56.75499843 92.67569608 46.4119445 98.41357422 36.06005859 C102.31238543 29.0276291 106.22442797 22.00335536 110.21069336 15.02001953 C112.33303857 11.27763372 114.28205311 7.47620032 116.16137695 3.6081543 C117 2 117 2 118 1 C120.8843382 0.91134792 123.74462158 0.88478704 126.62890625 0.90234375 C127.92525246 0.90446617 127.92525246 0.90446617 129.24778748 0.90663147 C132.01939292 0.91224761 134.7909188 0.92480281 137.5625 0.9375 C139.4368478 0.94251292 141.31119685 0.94707619 143.18554688 0.95117188 C147.79039544 0.96222228 152.39518421 0.9794977 157 1 C156.41781612 5.14138049 155.05066586 7.94897646 152.8515625 11.48828125 C152.18552002 12.57085205 151.51947754 13.65342285 150.83325195 14.76879883 C150.29506332 15.63234482 150.29506332 15.63234482 149.7460022 16.51333618 C147.80106 19.63489084 145.88104678 22.77177067 143.95703125 25.90625 C143.55238144 26.56393875 143.14773163 27.2216275 142.7308197 27.89924622 C138.58491673 34.64825654 134.54517483 41.45876719 130.51547241 48.27758789 C124.48525163 58.4781288 118.43788797 68.66877652 112.3125 78.8125 C111.78503174 79.69397705 111.25756348 80.5754541 110.71411133 81.48364258 C106.53723151 88.36909738 106.53723151 88.36909738 103.97502136 91.37805176 C97.61474722 98.96586014 96.85496532 104.93064136 97 114.63671875 C96.99246273 116.01107569 96.98141227 117.38541738 96.96704102 118.75971985 C96.93886772 122.33915927 96.95771917 125.91678724 96.98712158 129.49615479 C97.00867472 133.16355969 96.98514839 136.83067425 96.96484375 140.49804688 C96.92840255 147.6668411 96.96598787 154.82981703 97 162 C85.78 162 74.56 162 63 162 C63.04382813 157.854375 63.08765625 153.70875 63.1328125 149.4375 C63.13974707 146.08502307 63.13658105 142.73288574 63.12670898 139.38043213 C63.11907947 135.86674047 63.12830464 132.35513685 63.18164062 128.84179688 C63.56260385 106.58569785 63.56260385 106.58569785 53.25439453 87.54876709 C51.37938449 85.23374277 49.91845566 82.71294421 48.41796875 80.14453125 C47.88550537 79.26651855 47.35304199 78.38850586 46.80444336 77.48388672 C46.27085205 76.6023291 45.73726074 75.72077148 45.1875 74.8125 C39.0526284 64.70672082 32.84894412 54.64537957 26.61328125 44.6015625 C24.97859916 41.96548921 23.34805635 39.32689888 21.71875 36.6875 C20.62504491 34.91663893 19.53129518 33.14580543 18.4375 31.375 C17.90801758 30.51720947 17.37853516 29.65941895 16.83300781 28.77563477 C14.08946826 24.34063688 11.3220903 19.92283284 8.515625 15.52734375 C7.95689697 14.65094238 7.39816895 13.77454102 6.82250977 12.87158203 C5.75413681 11.19938771 4.68186931 9.52967353 3.60522461 7.86279297 C3.13093018 7.1204541 2.65663574 6.37811523 2.16796875 5.61328125 C1.74797607 4.96141846 1.3279834 4.30955566 0.89526367 3.63793945 C0 2 0 2 0 0 Z " fill="#FCFDFC" transform="translate(365,678)"/>
<path d="M0 0 C1.05706398 -0.01073296 1.05706398 -0.01073296 2.13548279 -0.02168274 C4.45492237 -0.03853223 6.7724186 -0.01919228 9.09179688 0.00219727 C10.70935221 0.00136821 12.32690746 -0.00109258 13.94445801 -0.00511169 C17.33058097 -0.00796709 20.71604152 0.00670538 24.10205078 0.03417969 C28.43670852 0.06826278 32.77018212 0.06224224 37.10489655 0.04351711 C40.44388655 0.03293515 43.78260226 0.04189565 47.12156677 0.05690193 C48.71950973 0.06207548 50.31748144 0.06161198 51.91542053 0.05535698 C54.15126875 0.04988997 56.38543712 0.07032377 58.62109375 0.09765625 C59.89174683 0.10385483 61.1623999 0.11005341 62.47155762 0.11643982 C66.38573192 0.71976114 68.06092564 1.82529258 70.81054688 4.63110352 C71.43945312 7.28735352 71.43945312 7.28735352 71.37304688 10.13110352 C71.37433594 11.06954102 71.375625 12.00797852 71.37695312 12.97485352 C70.81054688 15.63110352 70.81054688 15.63110352 69.47851562 17.95922852 C65.11691693 20.69241188 60.58547697 20.0469007 55.56054688 19.88110352 C54.52929688 19.86305664 53.49804688 19.84500977 52.43554688 19.82641602 C49.89293623 19.77933063 47.35221526 19.71358402 44.81054688 19.63110352 C46.45152108 24.36139002 48.23711666 28.07797689 51.81054688 31.63110352 C57.58997287 33.43649644 63.83675913 32.79738421 69.81054688 32.63110352 C71.68458188 34.50513852 71.07043765 37.49747416 71.12304688 40.00610352 C71.17912109 41.75020508 71.17912109 41.75020508 71.23632812 43.52954102 C70.81054688 46.63110352 70.81054688 46.63110352 69.24414062 48.53344727 C65.90834029 50.03803778 63.20353799 49.91979771 59.56054688 49.81860352 C58.29726563 49.7915332 57.03398438 49.76446289 55.73242188 49.73657227 C54.76820313 49.70176758 53.80398438 49.66696289 52.81054688 49.63110352 C52.68808594 50.36844727 52.565625 51.10579102 52.43945312 51.86547852 C49.88476246 63.09977037 40.59922046 71.97334905 31.34570312 78.12329102 C22.08515827 83.63110352 22.08515827 83.63110352 17.81054688 83.63110352 C19.25216664 88.06998922 21.69799348 91.13458669 24.74804688 94.56860352 C29.2570967 99.75785608 33.54667614 105.0670961 37.72729492 110.52368164 C41.51097618 115.40197416 45.6675506 119.73657798 50.10742188 124.03344727 C51.81054688 126.63110352 51.81054688 126.63110352 51.57617188 130.44750977 C51.32351563 131.4980957 51.07085938 132.54868164 50.81054688 133.63110352 C45.88161336 135.27408135 40.94921247 135.21877006 35.81054688 134.63110352 C33.0216045 132.94721378 31.79428147 132.00575052 29.81054688 129.63110352 C29.33101562 129.09614258 28.85148438 128.56118164 28.35742188 128.01000977 C27.22318753 126.72986664 26.10334309 125.43690219 24.99414062 124.13500977 C22.17160797 120.89843833 19.24275093 117.76815962 16.31054688 114.63110352 C12.34295822 110.37895992 8.42395731 106.10355723 4.62695312 101.69750977 C1.71684292 98.38686826 -1.28363018 95.15859638 -4.28369141 91.92944336 C-5.5975663 90.50761766 -6.89383094 89.06958143 -8.18945312 87.63110352 C-8.94871094 86.82286133 -9.70796875 86.01461914 -10.49023438 85.18188477 C-12.64390217 81.9489076 -12.72492242 79.86338885 -12.68945312 76.00610352 C-12.69976563 74.87946289 -12.71007812 73.75282227 -12.72070312 72.59204102 C-12.18945312 69.63110352 -12.18945312 69.63110352 -10.53710938 67.82250977 C-7.74409183 66.40508822 -5.20135286 65.7950353 -2.12695312 65.19360352 C9.0564098 62.75154778 20.1214224 59.66479022 26.81054688 49.63110352 C25.14499756 49.63895874 25.14499756 49.63895874 23.44580078 49.64697266 C19.33464358 49.66504337 15.22348991 49.67654313 11.11230469 49.68603516 C9.33137421 49.69107062 7.55044787 49.69789933 5.76953125 49.70654297 C3.21288023 49.71864293 0.65628376 49.72433961 -1.90039062 49.72875977 C-2.69939789 49.73392105 -3.49840515 49.73908234 -4.32162476 49.74440002 C-9.96170971 49.74497522 -9.96170971 49.74497522 -12.18945312 48.63110352 C-12.27047373 46.52756857 -12.3286522 44.423144 -12.37695312 42.31860352 C-12.41175781 41.1468457 -12.4465625 39.97508789 -12.48242188 38.76782227 C-12.18945312 35.63110352 -12.18945312 35.63110352 -11.16796875 33.95336914 C-8.07151417 31.88397156 -4.83457966 32.26393873 -1.24023438 32.33813477 C-0.46761765 32.34237961 0.30499908 32.34662445 1.10102844 32.35099792 C3.5670568 32.36778168 6.03226583 32.40543204 8.49804688 32.44360352 C10.17056111 32.4586508 11.84308816 32.47233913 13.515625 32.48461914 C17.61424765 32.51768405 21.71225838 32.56946323 25.81054688 32.63110352 C22.24425273 26.86038165 19.12412665 24.02795916 12.81054688 21.63110352 C8.29312241 20.77942357 3.77186525 20.69027188 -0.8125 20.53735352 C-7.60258819 20.1457118 -7.60258819 20.1457118 -10.79101562 17.34985352 C-12.16450167 14.67961248 -12.75718834 13.10470675 -12.75195312 10.13110352 C-12.77386719 9.39891602 -12.79578125 8.66672852 -12.81835938 7.91235352 C-11.01188863 1.35968946 -6.1531436 0.00465733 0 0 Z " fill="#10273B" transform="translate(588.189453125,384.368896484375)"/>
<path d="M0 0 C0.79447373 -0.00367669 1.58894746 -0.00735338 2.40749615 -0.01114148 C5.08442994 -0.02220339 7.76132495 -0.02602638 10.4382782 -0.02983093 C12.35161971 -0.03609364 14.26496 -0.04274027 16.17829895 -0.04974365 C21.38702357 -0.06717019 26.595739 -0.07770972 31.80448556 -0.08594918 C35.05657057 -0.09109537 38.30865271 -0.09717124 41.5607357 -0.10346031 C51.72954744 -0.12251618 61.8983519 -0.13674701 72.06717807 -0.14507228 C83.81706833 -0.15485004 95.56677047 -0.18118201 107.31659442 -0.22157317 C116.39094942 -0.25170001 125.46525038 -0.26653785 134.53965443 -0.26985329 C139.96300701 -0.27220752 145.38615871 -0.28121645 150.80945778 -0.30631447 C155.91071992 -0.32954044 161.01164813 -0.3338505 166.11294937 -0.32355309 C167.98626629 -0.32305629 169.85959933 -0.32941877 171.73286629 -0.34310913 C174.28878534 -0.36074479 176.84349516 -0.35376354 179.39941406 -0.34057617 C180.14222053 -0.35154542 180.885027 -0.36251466 181.65034276 -0.37381631 C186.50413588 -0.31327729 188.98589542 0.69100668 192.3901825 4.14717102 C193.99674678 7.3602996 193.86866148 10.66203355 193.3901825 14.14717102 C190.40488838 19.80893573 190.40488838 19.80893573 186.3901825 21.14717102 C183.80451186 21.24498018 181.24587527 21.2862473 178.66011047 21.28088379 C177.86478232 21.28314935 177.06945416 21.2854149 176.25002515 21.28774911 C173.57618928 21.29409596 170.90240399 21.29325931 168.2285614 21.29243469 C166.31507298 21.29542576 164.40158516 21.29882817 162.48809814 21.3026123 C157.28355738 21.31146192 152.07903305 21.31379082 146.87448549 21.31442809 C142.53293603 21.31537654 138.19139041 21.3190541 133.84984243 21.32260019 C123.60840433 21.33074843 113.36697502 21.33318409 103.12553406 21.33247375 C92.55380872 21.33187288 81.98213439 21.34242583 71.41042197 21.35821742 C62.34029227 21.37128422 53.27017926 21.37665801 44.20004022 21.37601835 C38.78012257 21.3757631 33.36025024 21.37862881 27.94034195 21.3891964 C22.84324015 21.39886289 17.74622713 21.39896651 12.64912224 21.39167976 C10.77742699 21.39063211 8.90572627 21.39300747 7.03404045 21.39904022 C4.48066253 21.40673765 1.9275929 21.40213028 -0.6257782 21.39440918 C-1.73896473 21.40212452 -1.73896473 21.40212452 -2.87463987 21.40999573 C-6.88601847 21.38315781 -10.03964092 21.03046867 -13.6098175 19.14717102 C-16.18822168 16.22497962 -16.86631626 13.95529476 -16.6723175 10.14717102 C-16.1302676 6.88871192 -15.18909009 5.33782431 -12.6723175 3.20967102 C-8.17182519 0.17872722 -5.3007066 -0.00130387 0 0 Z " fill="#152F43" transform="translate(463.6098175048828,264.8528289794922)"/>
<path d="M0 0 C1.2297442 -0.00573832 1.2297442 -0.00573832 2.48433173 -0.01159257 C5.24113475 -0.02194037 7.9977302 -0.01792705 10.75454712 -0.01396179 C12.72714939 -0.01830731 14.69974997 -0.02348992 16.67234802 -0.02944946 C22.03805639 -0.04286869 27.40369445 -0.04341483 32.76941633 -0.04088616 C37.24517755 -0.03981832 41.72092442 -0.04469509 46.19668257 -0.04949158 C56.75455582 -0.06059713 67.3123935 -0.06101845 77.87026978 -0.05497742 C88.76921362 -0.04893718 99.66802838 -0.06124755 110.5669502 -0.08254749 C119.9173383 -0.10015052 129.26768526 -0.10616685 138.61808932 -0.10290974 C144.20569848 -0.10109449 149.79321559 -0.10375705 155.38080978 -0.11762428 C160.6355402 -0.13017669 165.89006914 -0.12828302 171.14479637 -0.11521339 C173.07454305 -0.11284233 175.00430379 -0.11560121 176.93403435 -0.12383652 C179.56636572 -0.13426099 182.1980157 -0.12623802 184.83032227 -0.11352539 C185.59579231 -0.12089968 186.36126235 -0.12827396 187.14992845 -0.13587171 C191.61400939 -0.09045019 194.49700648 0.48997432 198.04214478 3.26069641 C199.64301104 6.46242895 199.54131567 9.786467 199.04214478 13.26069641 C197.24850567 16.07073101 196.02333542 17.77010109 193.04214478 19.26069641 C190.41890215 19.36722294 187.82169484 19.41290811 185.19781494 19.41459656 C184.37813433 19.41897881 183.55845372 19.42336107 182.7139343 19.42787611 C179.9517535 19.44129122 177.18960462 19.447449 174.42739868 19.4535675 C172.45332189 19.46146621 170.47924654 19.46973501 168.50517273 19.47834778 C162.00969832 19.50459018 155.51421738 19.51987555 149.01870728 19.53413391 C146.78565847 19.53949228 144.55260972 19.54486979 142.319561 19.55026627 C133.03427756 19.57189638 123.74899588 19.59063513 114.46369362 19.60188866 C101.13960852 19.61814146 87.81581442 19.65135015 74.49183905 19.7082895 C65.13215328 19.74692981 55.77254554 19.76651421 46.41278207 19.77180922 C40.81782762 19.77547019 35.22318337 19.78757088 29.62831497 19.81991196 C24.36695877 19.84988932 19.10610216 19.8563414 13.84467888 19.8445282 C11.91126968 19.84430661 9.97783799 19.85268175 8.04450798 19.87018204 C5.40921097 19.89274239 2.77574586 19.8846409 0.14044189 19.86869812 C-0.62862311 19.88258021 -1.39768811 19.8964623 -2.19005811 19.91076505 C-5.97638456 19.85413866 -7.61517165 19.58489921 -10.40931129 16.9414463 C-12.83178825 12.74779398 -13.46077428 9.14664288 -12.20785522 4.44819641 C-9.33280965 -0.58313335 -5.13701205 -0.02521579 0 0 Z " fill="#0F2639" transform="translate(459.9578552246094,326.7393035888672)"/>
<path d="M0 0 C1.21558846 -0.01073296 1.21558846 -0.01073296 2.45573425 -0.02168274 C5.12739913 -0.03855402 7.79738201 -0.01917569 10.46899414 0.00219727 C12.33077635 0.00136834 14.19255849 -0.00109195 16.05433655 -0.00511169 C19.95409201 -0.00796872 23.85327284 0.00672065 27.75292969 0.03417969 C32.74434743 0.06823865 37.73473619 0.06225126 42.72620296 0.04351711 C46.57048571 0.03293219 50.41453034 0.04189889 54.25879097 0.05690193 C56.09873306 0.06207485 57.93870011 0.06161277 59.77863884 0.05535698 C62.35426881 0.04988762 64.92844237 0.07033465 67.50390625 0.09765625 C68.25994141 0.09113037 69.01597656 0.08460449 69.79492188 0.07788086 C74.92019273 0.17001884 77.87213189 1.3866125 81.81665039 4.63110352 C83.54534818 8.08849909 83.30631934 11.85085919 82.81665039 15.63110352 C81.02271371 18.5014022 79.83401763 20.1224199 76.81665039 21.63110352 C74.2603128 21.74488709 71.73057857 21.79891976 69.17333984 21.80810547 C68.38449905 21.81467667 67.59565826 21.82124786 66.78291321 21.82801819 C64.16525175 21.84777101 61.5476478 21.85941984 58.92993164 21.86938477 C58.03583273 21.87346029 57.14173382 21.87753582 56.220541 21.88173485 C51.4857341 21.90260676 46.75095626 21.91690207 42.01611328 21.92626953 C37.13132358 21.93731994 32.24699118 21.97170071 27.36236286 22.01144123 C23.60217967 22.03762545 19.84210495 22.0459631 16.08183861 22.04955101 C14.28175973 22.05441444 12.48168562 22.06602152 10.68169594 22.084589 C8.15641059 22.10901314 5.63230162 22.10800946 3.10693359 22.10107422 C1.99925629 22.12028931 1.99925629 22.12028931 0.86920166 22.13989258 C-4.66536868 22.08473048 -7.73363438 20.69126374 -12.18334961 17.63110352 C-14.1746124 14.56124005 -14.18641093 12.80253773 -14.12084961 9.13110352 C-12.0664935 1.46150738 -7.3551259 -0.11344441 0 0 Z " fill="#0F293F" transform="translate(461.183349609375,384.368896484375)"/>
<path d="M0 0 C0.77097015 -0.00058411 1.54194031 -0.00116821 2.33627319 -0.00177002 C4.88520295 0.00101727 7.43296396 0.03213825 9.98168945 0.06347656 C11.74859478 0.07093669 13.51550837 0.0766307 15.28242493 0.08062744 C19.93347 0.09590179 24.58401559 0.13519892 29.23486328 0.17944336 C33.98048139 0.22035735 38.72618019 0.23863017 43.47192383 0.25878906 C52.78399227 0.30169159 62.09568995 0.36996457 71.4074707 0.45410156 C71.48865021 2.87144698 71.54803996 5.28605106 71.5949707 7.70410156 C71.62010742 8.38601562 71.64524414 9.06792969 71.67114258 9.77050781 C71.71485514 12.77210345 71.54380221 15.13953058 70.34436035 17.90711975 C67.38572942 20.27016002 64.97616037 19.95533773 61.22973633 19.95581055 C60.50259933 19.96121353 59.77546234 19.96661652 59.02629089 19.97218323 C56.6216873 19.98469508 54.21827537 19.96816452 51.8137207 19.95019531 C50.14367612 19.95035025 48.47363117 19.95183827 46.80358887 19.9546051 C43.30306102 19.95599019 39.80294236 19.94341312 36.30249023 19.9206543 C31.8130454 19.89226907 27.32428062 19.89500539 22.83478546 19.90774441 C19.38611024 19.91469588 15.9375925 19.90691845 12.48893738 19.89448738 C10.83351749 19.88996768 9.17808073 19.8896406 7.5226593 19.89355278 C5.20982143 19.89645987 2.89792416 19.87998343 0.58520508 19.8581543 C-1.38977966 19.85004982 -1.38977966 19.85004982 -3.40466309 19.84178162 C-6.5925293 19.45410156 -6.5925293 19.45410156 -8.4786377 18.05384827 C-10.52295915 15.1178386 -10.77936623 13.12676073 -10.8425293 9.57910156 C-10.86831055 8.71542969 -10.8940918 7.85175781 -10.9206543 6.96191406 C-10.03834822 0.21857476 -5.96161084 -0.11777976 0 0 Z " fill="#0F2538" transform="translate(583.592529296875,195.5458984375)"/>
<path d="M0 0 C3.08669204 3.08669204 3.44855089 3.91927658 4 8 C3.67 8 3.34 8 3 8 C2.67 39.02 2.34 70.04 2 102 C1.34 102 0.68 102 0 102 C0 68.34 0 34.68 0 0 Z " fill="#04142B" transform="translate(581,738)"/>
<path d="M0 0 C0.66 0.33 1.32 0.66 2 1 C1.27087654 1.5928051 1.27087654 1.5928051 0.52702332 2.19758606 C-1.44815962 4.52898285 -1.39343317 5.8091007 -1.43237305 8.83862305 C-1.45216721 9.8194133 -1.47196136 10.80020355 -1.49235535 11.81071472 C-1.49874527 12.86704605 -1.50513519 13.92337738 -1.51171875 15.01171875 C-1.52966995 16.09508011 -1.54762115 17.17844147 -1.56611633 18.29463196 C-1.62034985 21.75888157 -1.65415744 25.22299238 -1.6875 28.6875 C-1.72066149 31.03452458 -1.75515004 33.38153081 -1.79101562 35.72851562 C-1.87608374 41.48555262 -1.94437832 47.2426073 -2 53 C-2.33 53 -2.66 53 -3 53 C-3.68596234 40.4246318 -4.1495342 27.84335176 -4.3125 15.25 C-4.34214844 14.07848389 -4.37179687 12.90696777 -4.40234375 11.69995117 C-4.41007813 10.60787354 -4.4178125 9.5157959 -4.42578125 8.390625 C-4.44036377 7.42157227 -4.45494629 6.45251953 -4.4699707 5.45410156 C-4 3 -4 3 -1.97338867 1.16308594 C-1.32217041 0.77926758 -0.67095215 0.39544922 0 0 Z " fill="#04162E" transform="translate(758,786)"/>
<path d="M0 0 C0 3.49889647 -0.54120332 4.0553603 -2.75 6.625 C-3.26046875 7.23601563 -3.7709375 7.84703125 -4.296875 8.4765625 C-6.19607419 10.17538747 -7.51275949 10.5998787 -10 11 C-10 9.02 -10 7.04 -10 5 C-8.9171875 4.87625 -8.9171875 4.87625 -7.8125 4.75 C-4.44686746 3.85249799 -2.58387184 2.2885722 0 0 Z " fill="#0D2036" transform="translate(796,693)"/>
<path d="M0 0 C0.33 0.66 0.66 1.32 1 2 C-4 7 -9 12 -14 17 C-14 14 -14 14 -12.71484375 12.37426758 C-12.12832031 11.80345459 -11.54179687 11.2326416 -10.9375 10.64453125 C-10.30585938 10.02255859 -9.67421875 9.40058594 -9.0234375 8.75976562 C-8.35570312 8.11716797 -7.68796875 7.47457031 -7 6.8125 C-6.33226562 6.15830078 -5.66453125 5.50410156 -4.9765625 4.83007812 C-3.32421559 3.21313865 -1.66528399 1.60359509 0 0 Z " fill="#081126" transform="translate(459,562)"/>
<path d="M0 0 C5.75 1.625 5.75 1.625 8 5 C8.25760279 7.69452521 8.08900053 10.28548375 8 13 C7.34 13 6.68 13 6 13 C5.67 9.7 5.34 6.4 5 3 C3.35 3 1.7 3 0 3 C0 2.01 0 1.02 0 0 Z " fill="#0B3254" transform="translate(651,327)"/>
<path d="M0 0 C3.21524305 1.40844718 5.32183868 3.10344786 7.75 5.625 C8.67039062 6.57246094 8.67039062 6.57246094 9.609375 7.5390625 C10.29773438 8.26222656 10.29773438 8.26222656 11 9 C10.34 9.66 9.68 10.32 9 11 C7.49403892 9.54782324 5.99537896 8.08807139 4.5 6.625 C3.6646875 5.81289063 2.829375 5.00078125 1.96875 4.1640625 C0 2 0 2 0 0 Z " fill="#183750" transform="translate(648,565)"/>
<path d="M0 0 C0.33 0 0.66 0 1 0 C1 6.27 1 12.54 1 19 C-0.32 17.68 -1.64 16.36 -3 15 C-3 14.34 -3 13.68 -3 13 C-2.01 13 -1.02 13 0 13 C0 8.71 0 4.42 0 0 Z " fill="#060C1F" transform="translate(651,759)"/>
<path d="M0 0 C0.8125 1.6875 0.8125 1.6875 1 4 C-1.3125 6.75 -1.3125 6.75 -4 9 C-4.66 9 -5.32 9 -6 9 C-4.47291037 5.56404834 -2.40072955 2.88087546 0 0 Z " fill="#B1ECF8" transform="translate(294,185)"/>
<path d="M0 0 C0.66 0 1.32 0 2 0 C1.67 2.64 1.34 5.28 1 8 C0.01 7.67 -0.98 7.34 -2 7 C-1.34 4.69 -0.68 2.38 0 0 Z " fill="#132D48" transform="translate(402,223)"/>
<path d="M0 0 C1.32 1.65 2.64 3.3 4 5 C3.67 5.66 3.34 6.32 3 7 C1.68 6.67 0.36 6.34 -1 6 C-0.67 5.34 -0.34 4.68 0 4 C0 2.68 0 1.36 0 0 Z " fill="#0C2F4B" transform="translate(585,744)"/>
<path d="M0 0 C0 0.99 0 1.98 0 3 C-2.5 5.1875 -2.5 5.1875 -5 7 C-5.66 6.67 -6.32 6.34 -7 6 C-4.69 4.02 -2.38 2.04 0 0 Z " fill="#AEF3FA" transform="translate(306,174)"/>
</svg>
